<mxfile host="app.diagrams.net" agent="Mozilla/5.0 (Windows NT 10.0; Win64; x64) AppleWebKit/537.36 (KHTML, like Gecko) Chrome/141.0.0.0 Safari/537.36 Edg/141.0.0.0" version="28.2.8">
  <diagram name="Page-1" id="N8C0wDKiSXCo6xsvEcrM">
    <mxGraphModel dx="2252" dy="896" grid="1" gridSize="10" guides="1" tooltips="1" connect="1" arrows="1" fold="1" page="1" pageScale="1" pageWidth="1654" pageHeight="1169" math="0" shadow="0">
      <root>
        <mxCell id="0" />
        <mxCell id="1" parent="0" />
        <mxCell id="qpZeofuVSaSVFo1wh7OD-1" value="" style="rounded=1;whiteSpace=wrap;html=1;fillColor=none;" vertex="1" parent="1">
          <mxGeometry x="714" y="407" width="310" height="81" as="geometry" />
        </mxCell>
        <mxCell id="qpZeofuVSaSVFo1wh7OD-2" value="LUT" style="rounded=1;whiteSpace=wrap;html=1;fillColor=#e0d5e7;" vertex="1" parent="1">
          <mxGeometry x="721" y="557" width="49.5" height="15" as="geometry" />
        </mxCell>
        <mxCell id="qpZeofuVSaSVFo1wh7OD-3" value="FPGA" style="rounded=1;whiteSpace=wrap;html=1;fontStyle=0;strokeWidth=2;strokeColor=default;fillColor=#46766A;fontColor=#FFFFFF;" vertex="1" parent="1">
          <mxGeometry x="658.5" y="552" width="51.5" height="15" as="geometry" />
        </mxCell>
        <mxCell id="qpZeofuVSaSVFo1wh7OD-4" value="Basic Computation Unit" style="rounded=1;whiteSpace=wrap;html=1;fontStyle=0;strokeWidth=2;strokeColor=default;fillColor=#46766A;fontColor=#FFFFFF;" vertex="1" parent="1">
          <mxGeometry x="570" y="491" width="140" height="15" as="geometry" />
        </mxCell>
        <mxCell id="qpZeofuVSaSVFo1wh7OD-5" value="Fine-Grained Computation unit" style="rounded=1;whiteSpace=wrap;html=1;fontStyle=0;strokeWidth=2;strokeColor=default;fillColor=#46766A;fontColor=#FFFFFF;" vertex="1" parent="1">
          <mxGeometry x="570.25" y="407" width="140" height="28" as="geometry" />
        </mxCell>
        <mxCell id="qpZeofuVSaSVFo1wh7OD-6" value="Control logic" style="rounded=1;whiteSpace=wrap;html=1;fontStyle=0;strokeWidth=2;strokeColor=default;fillColor=#46766A;fontColor=#FFFFFF;" vertex="1" parent="1">
          <mxGeometry x="570" y="358.5" width="140" height="15" as="geometry" />
        </mxCell>
        <mxCell id="qpZeofuVSaSVFo1wh7OD-7" value="HBM&lt;span style=&quot;color: rgba(0, 0, 0, 0); font-family: monospace; font-size: 0px; text-align: start; text-wrap-mode: nowrap;&quot;&gt;%3CmxGraphModel%3E%3Croot%3E%3CmxCell%20id%3D%220%22%2F%3E%3CmxCell%20id%3D%221%22%20parent%3D%220%22%2F%3E%3CmxCell%20id%3D%222%22%20value%3D%22CKKS%22%20style%3D%22rounded%3D1%3BwhiteSpace%3Dwrap%3Bhtml%3D1%3BstrokeColor%3Ddefault%3BfillColor%3D%238e413d%3BfontStyle%3D0%3BstrokeWidth%3D2%3BfontColor%3D%23FFFFFF%3B%22%20vertex%3D%221%22%20parent%3D%221%22%3E%3CmxGeometry%20x%3D%22332%22%20y%3D%22200%22%20width%3D%2251.5%22%20height%3D%2215%22%20as%3D%22geometry%22%2F%3E%3C%2FmxCell%3E%3C%2Froot%3E%3C%2FmxGraphModel%3E&lt;/span&gt;" style="rounded=1;whiteSpace=wrap;html=1;strokeColor=#82b366;fillColor=#d5e8d4;fontStyle=0;strokeWidth=2;" vertex="1" parent="1">
          <mxGeometry x="599" y="520" width="51.5" height="15" as="geometry" />
        </mxCell>
        <mxCell id="qpZeofuVSaSVFo1wh7OD-8" value="BRAM" style="rounded=1;whiteSpace=wrap;html=1;strokeColor=#6c8ebf;fillColor=#dae8fc;fontStyle=0;strokeWidth=2;" vertex="1" parent="1">
          <mxGeometry x="658.75" y="511" width="51.5" height="15" as="geometry" />
        </mxCell>
        <mxCell id="qpZeofuVSaSVFo1wh7OD-9" value="URAM" style="rounded=1;whiteSpace=wrap;html=1;strokeColor=#6c8ebf;fillColor=#dae8fc;fontStyle=0;strokeWidth=2;" vertex="1" parent="1">
          <mxGeometry x="658.5" y="531" width="51.5" height="15" as="geometry" />
        </mxCell>
        <mxCell id="qpZeofuVSaSVFo1wh7OD-10" value="" style="rounded=1;whiteSpace=wrap;html=1;fillColor=none;" vertex="1" parent="1">
          <mxGeometry x="714" y="552" width="310" height="25" as="geometry" />
        </mxCell>
        <mxCell id="qpZeofuVSaSVFo1wh7OD-11" value="LUT" style="rounded=1;whiteSpace=wrap;html=1;fillColor=#e0d5e7;" vertex="1" parent="1">
          <mxGeometry x="770.5" y="557" width="49.5" height="15" as="geometry" />
        </mxCell>
        <mxCell id="qpZeofuVSaSVFo1wh7OD-12" value="LUT" style="rounded=1;whiteSpace=wrap;html=1;fillColor=#e0d5e7;" vertex="1" parent="1">
          <mxGeometry x="820" y="557" width="49.5" height="15" as="geometry" />
        </mxCell>
        <mxCell id="qpZeofuVSaSVFo1wh7OD-13" value="LUT" style="rounded=1;whiteSpace=wrap;html=1;fillColor=#e0d5e7;" vertex="1" parent="1">
          <mxGeometry x="869.5" y="557" width="49.5" height="15" as="geometry" />
        </mxCell>
        <mxCell id="qpZeofuVSaSVFo1wh7OD-14" value="LUT" style="rounded=1;whiteSpace=wrap;html=1;fillColor=#e0d5e7;" vertex="1" parent="1">
          <mxGeometry x="919" y="557" width="49.5" height="15" as="geometry" />
        </mxCell>
        <mxCell id="qpZeofuVSaSVFo1wh7OD-15" value="LUT" style="rounded=1;whiteSpace=wrap;html=1;fillColor=#e0d5e7;" vertex="1" parent="1">
          <mxGeometry x="968.5" y="557" width="49.5" height="15" as="geometry" />
        </mxCell>
        <mxCell id="qpZeofuVSaSVFo1wh7OD-16" value="" style="rounded=1;whiteSpace=wrap;html=1;fillColor=none;" vertex="1" parent="1">
          <mxGeometry x="714" y="491" width="310" height="58" as="geometry" />
        </mxCell>
        <mxCell id="qpZeofuVSaSVFo1wh7OD-17" value="ModAdd" style="rounded=1;whiteSpace=wrap;html=1;fillColor=#5292C0;strokeWidth=2;glass=0;shadow=0;" vertex="1" parent="1">
          <mxGeometry x="724.5" y="495" width="70" height="15" as="geometry" />
        </mxCell>
        <mxCell id="qpZeofuVSaSVFo1wh7OD-18" value="ModMul" style="rounded=1;whiteSpace=wrap;html=1;fillColor=#5292C0;strokeWidth=2;glass=0;shadow=0;" vertex="1" parent="1">
          <mxGeometry x="797.5" y="495" width="70" height="15" as="geometry" />
        </mxCell>
        <mxCell id="qpZeofuVSaSVFo1wh7OD-19" value="BFU" style="rounded=1;whiteSpace=wrap;html=1;fillColor=#C93649;strokeWidth=2;glass=0;shadow=0;" vertex="1" parent="1">
          <mxGeometry x="797.5" y="531" width="70" height="15" as="geometry" />
        </mxCell>
        <mxCell id="qpZeofuVSaSVFo1wh7OD-20" value="De/Recomp" style="rounded=1;whiteSpace=wrap;html=1;fillColor=#C93649;strokeWidth=2;glass=0;shadow=0;" vertex="1" parent="1">
          <mxGeometry x="943.5" y="513" width="70" height="15" as="geometry" />
        </mxCell>
        <mxCell id="qpZeofuVSaSVFo1wh7OD-21" value="MAC" style="rounded=1;whiteSpace=wrap;html=1;fillColor=#C93649;strokeWidth=2;glass=0;shadow=0;" vertex="1" parent="1">
          <mxGeometry x="724.5" y="513" width="70" height="15" as="geometry" />
        </mxCell>
        <mxCell id="qpZeofuVSaSVFo1wh7OD-22" value="Rotate" style="rounded=1;whiteSpace=wrap;html=1;fillColor=#C93649;strokeWidth=2;glass=0;shadow=0;" vertex="1" parent="1">
          <mxGeometry x="797.5" y="513" width="70" height="15" as="geometry" />
        </mxCell>
        <mxCell id="qpZeofuVSaSVFo1wh7OD-23" value="Rescale" style="rounded=1;whiteSpace=wrap;html=1;fillColor=#C93649;strokeWidth=2;glass=0;shadow=0;" vertex="1" parent="1">
          <mxGeometry x="870.5" y="513" width="70" height="15" as="geometry" />
        </mxCell>
        <mxCell id="qpZeofuVSaSVFo1wh7OD-24" value="Compare" style="rounded=1;whiteSpace=wrap;html=1;fillColor=#5292C0;strokeWidth=2;glass=0;shadow=0;" vertex="1" parent="1">
          <mxGeometry x="943.5" y="495" width="70" height="15" as="geometry" />
        </mxCell>
        <mxCell id="qpZeofuVSaSVFo1wh7OD-25" value="Extract/Pack" style="rounded=1;whiteSpace=wrap;html=1;fillColor=#5292C0;strokeWidth=2;" vertex="1" parent="1">
          <mxGeometry x="870.5" y="495" width="70" height="15" as="geometry" />
        </mxCell>
        <mxCell id="qpZeofuVSaSVFo1wh7OD-26" value="TBL" style="rounded=1;whiteSpace=wrap;html=1;fillColor=#C93649;strokeWidth=2;" vertex="1" parent="1">
          <mxGeometry x="870.5" y="531" width="70" height="15" as="geometry" />
        </mxCell>
        <mxCell id="qpZeofuVSaSVFo1wh7OD-27" value="NTT/INTT" style="rounded=1;whiteSpace=wrap;html=1;fillColor=#9E5E45;strokeWidth=2;glass=0;shadow=0;" vertex="1" parent="1">
          <mxGeometry x="726" y="415" width="70" height="15" as="geometry" />
        </mxCell>
        <mxCell id="qpZeofuVSaSVFo1wh7OD-28" value="Bridge" style="rounded=1;whiteSpace=wrap;html=1;fillColor=#F2C987;strokeWidth=2;glass=0;shadow=0;" vertex="1" parent="1">
          <mxGeometry x="915.25" y="466" width="70" height="15" as="geometry" />
        </mxCell>
        <mxCell id="qpZeofuVSaSVFo1wh7OD-29" value="LWEToRLWE" style="rounded=1;whiteSpace=wrap;html=1;fillColor=#F2C987;strokeWidth=2;glass=0;shadow=0;" vertex="1" parent="1">
          <mxGeometry x="835.25" y="466" width="74" height="15" as="geometry" />
        </mxCell>
        <mxCell id="qpZeofuVSaSVFo1wh7OD-30" value="HReLU" style="rounded=1;whiteSpace=wrap;html=1;fillColor=#DEA97F;strokeWidth=2;glass=0;shadow=0;" vertex="1" parent="1">
          <mxGeometry x="799" y="441" width="70" height="15" as="geometry" />
        </mxCell>
        <mxCell id="qpZeofuVSaSVFo1wh7OD-31" value="Boot(FHEW)" style="rounded=1;whiteSpace=wrap;html=1;fillColor=#DEA97F;strokeWidth=2;glass=0;shadow=0;" vertex="1" parent="1">
          <mxGeometry x="872" y="441" width="70" height="15" as="geometry" />
        </mxCell>
        <mxCell id="qpZeofuVSaSVFo1wh7OD-32" value="RLWEToLWE" style="rounded=1;whiteSpace=wrap;html=1;fillColor=#F2C987;strokeWidth=2;glass=0;shadow=0;" vertex="1" parent="1">
          <mxGeometry x="755.75" y="466" width="74" height="15" as="geometry" />
        </mxCell>
        <mxCell id="qpZeofuVSaSVFo1wh7OD-33" value="" style="rounded=1;whiteSpace=wrap;html=1;fillColor=none;dashed=1;" vertex="1" parent="1">
          <mxGeometry x="721.5" y="461" width="299" height="23" as="geometry" />
        </mxCell>
        <mxCell id="qpZeofuVSaSVFo1wh7OD-34" value="" style="rounded=1;whiteSpace=wrap;html=1;fillColor=none;" vertex="1" parent="1">
          <mxGeometry x="714" y="358.5" width="310" height="46" as="geometry" />
        </mxCell>
        <mxCell id="qpZeofuVSaSVFo1wh7OD-35" value="" style="shape=flexArrow;endArrow=classic;html=1;rounded=0;width=4.666666666666667;endSize=5.886666666666667;endWidth=6.111111111111111;fillColor=#000000;" edge="1" parent="1">
          <mxGeometry width="50" height="50" relative="1" as="geometry">
            <mxPoint x="721.5" y="391.28000000000003" as="sourcePoint" />
            <mxPoint x="1020" y="390.5" as="targetPoint" />
          </mxGeometry>
        </mxCell>
        <mxCell id="qpZeofuVSaSVFo1wh7OD-36" value="Pattern 1" style="rounded=1;whiteSpace=wrap;html=1;fillColor=#664F97;strokeWidth=2;glass=0;shadow=0;" vertex="1" parent="1">
          <mxGeometry x="755.75" y="365" width="70" height="15" as="geometry" />
        </mxCell>
        <mxCell id="qpZeofuVSaSVFo1wh7OD-37" value="Pattern 2" style="rounded=1;whiteSpace=wrap;html=1;fillColor=#664F97;strokeWidth=2;glass=0;shadow=0;" vertex="1" parent="1">
          <mxGeometry x="835.5" y="365" width="70" height="15" as="geometry" />
        </mxCell>
        <mxCell id="qpZeofuVSaSVFo1wh7OD-38" value="Pattern 3" style="rounded=1;whiteSpace=wrap;html=1;fillColor=#664F97;strokeWidth=2;" vertex="1" parent="1">
          <mxGeometry x="915.25" y="365" width="70" height="15" as="geometry" />
        </mxCell>
        <mxCell id="qpZeofuVSaSVFo1wh7OD-39" value="" style="shape=flexArrow;endArrow=classic;html=1;rounded=0;width=4.666666666666667;endSize=5.886666666666667;endWidth=6.111111111111111;fillColor=#3399FF;entryX=0.233;entryY=-0.001;entryDx=0;entryDy=0;exitX=0.5;exitY=1;exitDx=0;exitDy=0;entryPerimeter=0;" edge="1" parent="1" source="qpZeofuVSaSVFo1wh7OD-36" target="qpZeofuVSaSVFo1wh7OD-45">
          <mxGeometry width="50" height="50" relative="1" as="geometry">
            <mxPoint x="798" y="372.5" as="sourcePoint" />
            <mxPoint x="797.5" y="407.95" as="targetPoint" />
          </mxGeometry>
        </mxCell>
        <mxCell id="qpZeofuVSaSVFo1wh7OD-40" value="" style="shape=flexArrow;endArrow=classic;html=1;rounded=0;width=4.666666666666667;endSize=5.886666666666667;endWidth=6.111111111111111;fillColor=#3399FF;entryX=0.5;entryY=0;entryDx=0;entryDy=0;exitX=0.5;exitY=1;exitDx=0;exitDy=0;" edge="1" parent="1" source="qpZeofuVSaSVFo1wh7OD-37">
          <mxGeometry width="50" height="50" relative="1" as="geometry">
            <mxPoint x="870" y="381" as="sourcePoint" />
            <mxPoint x="870.39" y="437" as="targetPoint" />
          </mxGeometry>
        </mxCell>
        <mxCell id="qpZeofuVSaSVFo1wh7OD-41" value="" style="shape=flexArrow;endArrow=classic;html=1;rounded=0;width=4.666666666666667;endSize=5.886666666666667;endWidth=6.111111111111111;fillColor=#3399FF;exitX=0.5;exitY=1;exitDx=0;exitDy=0;entryX=0.778;entryY=1.114;entryDx=0;entryDy=0;entryPerimeter=0;" edge="1" parent="1" target="qpZeofuVSaSVFo1wh7OD-46">
          <mxGeometry width="50" height="50" relative="1" as="geometry">
            <mxPoint x="953" y="372.5" as="sourcePoint" />
            <mxPoint x="953" y="436.5" as="targetPoint" />
          </mxGeometry>
        </mxCell>
        <mxCell id="qpZeofuVSaSVFo1wh7OD-42" value="HMULT" style="rounded=1;whiteSpace=wrap;html=1;fillColor=#9E5E45;strokeWidth=2;glass=0;shadow=0;" vertex="1" parent="1">
          <mxGeometry x="799" y="415" width="70" height="15" as="geometry" />
        </mxCell>
        <mxCell id="qpZeofuVSaSVFo1wh7OD-43" value="Boot(CKKS)" style="rounded=1;whiteSpace=wrap;html=1;fillColor=#9E5E45;strokeWidth=2;glass=0;shadow=0;" vertex="1" parent="1">
          <mxGeometry x="945" y="415" width="70" height="15" as="geometry" />
        </mxCell>
        <mxCell id="qpZeofuVSaSVFo1wh7OD-44" value="HADD" style="rounded=1;whiteSpace=wrap;html=1;fillColor=#9E5E45;strokeWidth=2;" vertex="1" parent="1">
          <mxGeometry x="872" y="415" width="70" height="15" as="geometry" />
        </mxCell>
        <mxCell id="qpZeofuVSaSVFo1wh7OD-45" value="" style="rounded=1;whiteSpace=wrap;html=1;fillColor=none;dashed=1;" vertex="1" parent="1">
          <mxGeometry x="721" y="411" width="299" height="23" as="geometry" />
        </mxCell>
        <mxCell id="qpZeofuVSaSVFo1wh7OD-46" value="" style="rounded=1;whiteSpace=wrap;html=1;fillColor=none;dashed=1;" vertex="1" parent="1">
          <mxGeometry x="721" y="436" width="299" height="23" as="geometry" />
        </mxCell>
        <mxCell id="qpZeofuVSaSVFo1wh7OD-47" value="Time" style="text;html=1;whiteSpace=wrap;strokeColor=none;fillColor=none;align=center;verticalAlign=middle;rounded=0;strokeWidth=1;fontSize=10;" vertex="1" parent="1">
          <mxGeometry x="718" y="373.5" width="33" height="16" as="geometry" />
        </mxCell>
        <mxCell id="qpZeofuVSaSVFo1wh7OD-48" value="Micro Pseudo-ISA" style="rounded=1;whiteSpace=wrap;html=1;fontStyle=0;strokeWidth=2;strokeColor=default;fillColor=#46766A;fontColor=#FFFFFF;" vertex="1" parent="1">
          <mxGeometry x="797.5" y="330" width="140" height="15" as="geometry" />
        </mxCell>
        <mxCell id="qpZeofuVSaSVFo1wh7OD-49" value="" style="shape=flexArrow;endArrow=classic;html=1;rounded=0;width=6.027397260273973;endSize=1.7589041095890412;endWidth=6.111111111111111;fillColor=#3399FF;entryX=0.5;entryY=0;entryDx=0;entryDy=0;exitX=0.5;exitY=1;exitDx=0;exitDy=0;" edge="1" parent="1" target="qpZeofuVSaSVFo1wh7OD-34">
          <mxGeometry width="50" height="50" relative="1" as="geometry">
            <mxPoint x="869" y="345" as="sourcePoint" />
            <mxPoint x="912" y="320.5" as="targetPoint" />
          </mxGeometry>
        </mxCell>
        <mxCell id="qpZeofuVSaSVFo1wh7OD-50" value="" style="html=1;shadow=0;dashed=0;align=center;verticalAlign=middle;shape=mxgraph.arrows2.uTurnArrow;dy=5.13;arrowHead=20.49;dx2=8.8;rotation=-180;fillColor=#3399FF;" vertex="1" parent="1">
          <mxGeometry x="1024" y="437" width="56" height="98.27" as="geometry" />
        </mxCell>
      </root>
    </mxGraphModel>
  </diagram>
</mxfile>
